<mxfile host="app.diagrams.net" modified="2022-09-12T10:36:32.227Z" agent="5.0 (Macintosh; Intel Mac OS X 10_15_7) AppleWebKit/537.36 (KHTML, like Gecko) Chrome/105.0.0.0 Safari/537.36" etag="ZFJwoENUMjcykV3z3abv" version="20.2.8" type="github">
  <diagram id="XrkeispxeISgwHwELJAz" name="หน้า-1">
    <mxGraphModel dx="657" dy="1134" grid="1" gridSize="10" guides="1" tooltips="1" connect="1" arrows="1" fold="1" page="1" pageScale="1" pageWidth="827" pageHeight="1169" math="0" shadow="0">
      <root>
        <mxCell id="0" />
        <mxCell id="1" parent="0" />
        <mxCell id="RRW1R06dS2omuTVAxcX_-5" value="" style="edgeStyle=orthogonalEdgeStyle;rounded=0;orthogonalLoop=1;jettySize=auto;html=1;" edge="1" parent="1" source="RRW1R06dS2omuTVAxcX_-1" target="RRW1R06dS2omuTVAxcX_-4">
          <mxGeometry relative="1" as="geometry" />
        </mxCell>
        <mxCell id="RRW1R06dS2omuTVAxcX_-1" value="เริ่มต้น" style="ellipse;whiteSpace=wrap;html=1;" vertex="1" parent="1">
          <mxGeometry x="354" y="40" width="106" height="50" as="geometry" />
        </mxCell>
        <mxCell id="RRW1R06dS2omuTVAxcX_-7" value="" style="edgeStyle=orthogonalEdgeStyle;rounded=0;orthogonalLoop=1;jettySize=auto;html=1;" edge="1" parent="1" source="RRW1R06dS2omuTVAxcX_-4" target="RRW1R06dS2omuTVAxcX_-6">
          <mxGeometry relative="1" as="geometry" />
        </mxCell>
        <mxCell id="RRW1R06dS2omuTVAxcX_-4" value="เรียก API LogOut" style="rounded=1;whiteSpace=wrap;html=1;" vertex="1" parent="1">
          <mxGeometry x="347" y="130" width="120" height="60" as="geometry" />
        </mxCell>
        <mxCell id="RRW1R06dS2omuTVAxcX_-9" value="" style="edgeStyle=orthogonalEdgeStyle;rounded=0;orthogonalLoop=1;jettySize=auto;html=1;" edge="1" parent="1" source="RRW1R06dS2omuTVAxcX_-6" target="RRW1R06dS2omuTVAxcX_-8">
          <mxGeometry relative="1" as="geometry" />
        </mxCell>
        <mxCell id="RRW1R06dS2omuTVAxcX_-11" value="" style="edgeStyle=orthogonalEdgeStyle;rounded=0;orthogonalLoop=1;jettySize=auto;html=1;" edge="1" parent="1" source="RRW1R06dS2omuTVAxcX_-6" target="RRW1R06dS2omuTVAxcX_-10">
          <mxGeometry relative="1" as="geometry" />
        </mxCell>
        <mxCell id="RRW1R06dS2omuTVAxcX_-6" value="เชื่อมต่อ" style="rhombus;whiteSpace=wrap;html=1;rounded=1;" vertex="1" parent="1">
          <mxGeometry x="367" y="220" width="80" height="80" as="geometry" />
        </mxCell>
        <mxCell id="RRW1R06dS2omuTVAxcX_-15" value="" style="edgeStyle=orthogonalEdgeStyle;rounded=0;orthogonalLoop=1;jettySize=auto;html=1;" edge="1" parent="1" source="RRW1R06dS2omuTVAxcX_-8" target="RRW1R06dS2omuTVAxcX_-14">
          <mxGeometry relative="1" as="geometry" />
        </mxCell>
        <mxCell id="RRW1R06dS2omuTVAxcX_-8" value="ตรวจสอบสถานะข้อมูล" style="whiteSpace=wrap;html=1;rounded=1;" vertex="1" parent="1">
          <mxGeometry x="347" y="330" width="120" height="60" as="geometry" />
        </mxCell>
        <mxCell id="RRW1R06dS2omuTVAxcX_-23" style="edgeStyle=orthogonalEdgeStyle;rounded=0;orthogonalLoop=1;jettySize=auto;html=1;entryX=1;entryY=0.5;entryDx=0;entryDy=0;" edge="1" parent="1" source="RRW1R06dS2omuTVAxcX_-10" target="RRW1R06dS2omuTVAxcX_-21">
          <mxGeometry relative="1" as="geometry">
            <Array as="points">
              <mxPoint x="670" y="260" />
              <mxPoint x="670" y="660" />
            </Array>
          </mxGeometry>
        </mxCell>
        <mxCell id="RRW1R06dS2omuTVAxcX_-10" value="แสดงแจ้งเตือนว่าระบบไม่สามารถเชื่อมต่อได้" style="whiteSpace=wrap;html=1;rounded=1;" vertex="1" parent="1">
          <mxGeometry x="507" y="230" width="120" height="60" as="geometry" />
        </mxCell>
        <mxCell id="RRW1R06dS2omuTVAxcX_-12" value="ไม่ได้" style="text;html=1;align=center;verticalAlign=middle;resizable=0;points=[];autosize=1;strokeColor=none;fillColor=none;" vertex="1" parent="1">
          <mxGeometry x="440" y="220" width="50" height="30" as="geometry" />
        </mxCell>
        <mxCell id="RRW1R06dS2omuTVAxcX_-13" value="ได้" style="text;html=1;align=center;verticalAlign=middle;resizable=0;points=[];autosize=1;strokeColor=none;fillColor=none;" vertex="1" parent="1">
          <mxGeometry x="415" y="290" width="40" height="30" as="geometry" />
        </mxCell>
        <mxCell id="RRW1R06dS2omuTVAxcX_-18" value="" style="edgeStyle=orthogonalEdgeStyle;rounded=0;orthogonalLoop=1;jettySize=auto;html=1;" edge="1" parent="1" source="RRW1R06dS2omuTVAxcX_-14" target="RRW1R06dS2omuTVAxcX_-17">
          <mxGeometry relative="1" as="geometry" />
        </mxCell>
        <mxCell id="RRW1R06dS2omuTVAxcX_-20" value="" style="edgeStyle=orthogonalEdgeStyle;rounded=0;orthogonalLoop=1;jettySize=auto;html=1;" edge="1" parent="1" source="RRW1R06dS2omuTVAxcX_-14" target="RRW1R06dS2omuTVAxcX_-19">
          <mxGeometry relative="1" as="geometry" />
        </mxCell>
        <mxCell id="RRW1R06dS2omuTVAxcX_-14" value="สถานะสำเร็จ" style="rhombus;whiteSpace=wrap;html=1;rounded=1;" vertex="1" parent="1">
          <mxGeometry x="367" y="420" width="80" height="80" as="geometry" />
        </mxCell>
        <mxCell id="RRW1R06dS2omuTVAxcX_-24" style="edgeStyle=orthogonalEdgeStyle;rounded=0;orthogonalLoop=1;jettySize=auto;html=1;endArrow=none;endFill=0;" edge="1" parent="1" source="RRW1R06dS2omuTVAxcX_-17">
          <mxGeometry relative="1" as="geometry">
            <mxPoint x="670" y="460" as="targetPoint" />
          </mxGeometry>
        </mxCell>
        <mxCell id="RRW1R06dS2omuTVAxcX_-17" value="แสดงการแจ้ง&lt;br&gt;เตือนผิดพลาด" style="whiteSpace=wrap;html=1;rounded=1;" vertex="1" parent="1">
          <mxGeometry x="507" y="430" width="120" height="60" as="geometry" />
        </mxCell>
        <mxCell id="RRW1R06dS2omuTVAxcX_-22" value="" style="edgeStyle=orthogonalEdgeStyle;rounded=0;orthogonalLoop=1;jettySize=auto;html=1;" edge="1" parent="1" source="RRW1R06dS2omuTVAxcX_-19" target="RRW1R06dS2omuTVAxcX_-21">
          <mxGeometry relative="1" as="geometry" />
        </mxCell>
        <mxCell id="RRW1R06dS2omuTVAxcX_-19" value="ล้างข้อมูลผู้ใช้" style="whiteSpace=wrap;html=1;rounded=1;" vertex="1" parent="1">
          <mxGeometry x="347" y="530" width="120" height="60" as="geometry" />
        </mxCell>
        <mxCell id="RRW1R06dS2omuTVAxcX_-21" value="สิ้นสุด" style="ellipse;whiteSpace=wrap;html=1;rounded=1;" vertex="1" parent="1">
          <mxGeometry x="347" y="630" width="120" height="60" as="geometry" />
        </mxCell>
        <mxCell id="RRW1R06dS2omuTVAxcX_-25" value="ใช่" style="text;html=1;align=center;verticalAlign=middle;resizable=0;points=[];autosize=1;strokeColor=none;fillColor=none;" vertex="1" parent="1">
          <mxGeometry x="407" y="490" width="40" height="30" as="geometry" />
        </mxCell>
        <mxCell id="RRW1R06dS2omuTVAxcX_-26" value="ไม่ใช่" style="text;html=1;align=center;verticalAlign=middle;resizable=0;points=[];autosize=1;strokeColor=none;fillColor=none;" vertex="1" parent="1">
          <mxGeometry x="435" y="420" width="50" height="30" as="geometry" />
        </mxCell>
      </root>
    </mxGraphModel>
  </diagram>
</mxfile>
